<svg xmlns="http://www.w3.org/2000/svg" viewBox="0 0 600 200" width="600" height="200">
  <!-- Dust Protocol — Logo + Wordmark -->

  <!-- Vortex icon scaled down -->
  <g transform="translate(80,100) scale(0.45)">
    <!-- Dense core -->
    <circle cx="-6" cy="-10" r="12" fill="#22d3ee"/>
    <circle cx="10" cy="-4" r="11" fill="#38bdf8"/>
    <circle cx="2" cy="10" r="11.5" fill="#60a5fa"/>
    <circle cx="-10" cy="6" r="10.5" fill="#818cf8"/>
    <circle cx="0" cy="-2" r="8" fill="#a78bfa"/>
    <circle cx="8" cy="10" r="8" fill="#6366f1"/>
    <circle cx="-8" cy="-4" r="7" fill="#34d4f0"/>
    <!-- Inner ring -->
    <circle cx="0" cy="-34" r="8" fill="#22d3ee" opacity="0.9"/>
    <circle cx="30" cy="-17" r="7.5" fill="#38bdf8" opacity="0.85"/>
    <circle cx="30" cy="17" r="7.5" fill="#60a5fa" opacity="0.8"/>
    <circle cx="0" cy="34" r="7" fill="#818cf8" opacity="0.78"/>
    <circle cx="-30" cy="17" r="7" fill="#a78bfa" opacity="0.78"/>
    <circle cx="-30" cy="-17" r="7.5" fill="#6366f1" opacity="0.82"/>
    <!-- Mid ring -->
    <circle cx="14" cy="-56" r="6" fill="#22d3ee" opacity="0.65"/>
    <circle cx="46" cy="-30" r="5.5" fill="#2dd4bf" opacity="0.6"/>
    <circle cx="52" cy="8" r="5.5" fill="#38bdf8" opacity="0.58"/>
    <circle cx="32" cy="44" r="5" fill="#60a5fa" opacity="0.55"/>
    <circle cx="-8" cy="56" r="5" fill="#818cf8" opacity="0.52"/>
    <circle cx="-42" cy="36" r="5" fill="#a78bfa" opacity="0.5"/>
    <circle cx="-52" cy="-4" r="5.5" fill="#8b5cf6" opacity="0.55"/>
    <circle cx="-34" cy="-44" r="5.5" fill="#6366f1" opacity="0.58"/>
    <!-- Outer ring -->
    <circle cx="6" cy="-78" r="4" fill="#22d3ee" opacity="0.4"/>
    <circle cx="70" cy="-32" r="3.5" fill="#38bdf8" opacity="0.33"/>
    <circle cx="74" cy="14" r="3.5" fill="#60a5fa" opacity="0.3"/>
    <circle cx="18" cy="76" r="3" fill="#818cf8" opacity="0.26"/>
    <circle cx="-62" cy="44" r="3" fill="#c084fc" opacity="0.25"/>
    <circle cx="-72" cy="-10" r="3.5" fill="#8b5cf6" opacity="0.28"/>
    <circle cx="-52" cy="-60" r="3.5" fill="#6366f1" opacity="0.3"/>
  </g>

  <!-- Wordmark -->
  <text x="160" y="90" font-family="-apple-system, BlinkMacSystemFont, 'Segoe UI', Helvetica, Arial, sans-serif" font-size="52" font-weight="700" fill="#f4f4f5" letter-spacing="4">DUST</text>
  <text x="162" y="128" font-family="-apple-system, BlinkMacSystemFont, 'Segoe UI', Helvetica, Arial, sans-serif" font-size="18" font-weight="300" fill="#71717a" letter-spacing="8">PROTOCOL</text>
</svg>
