<svg xmlns="http://www.w3.org/2000/svg" viewBox="0 0 400 400" width="400" height="400">
  <defs>
    <linearGradient id="g3" x1="0%" y1="0%" x2="100%" y2="100%">
      <stop offset="0%" stop-color="#22d3ee"/>
      <stop offset="100%" stop-color="#a78bfa"/>
    </linearGradient>
  </defs>
  <!-- V3: Vortex — circular arrangement of dots spiraling outward, dense core to dispersed edge -->
  <g transform="translate(200,200)">
    <!-- Dense core ring -->
    <circle cx="0" cy="-16" r="10" fill="#22d3ee"/>
    <circle cx="14" cy="-6" r="9.5" fill="#38bdf8"/>
    <circle cx="8" cy="10" r="9" fill="#60a5fa"/>
    <circle cx="-8" cy="8" r="9" fill="#818cf8"/>
    <circle cx="-14" cy="-6" r="9.5" fill="#6366f1"/>
    <circle cx="0" cy="0" r="7" fill="#a78bfa"/>
    <!-- Mid ring — slightly separated -->
    <circle cx="0" cy="-38" r="7.5" fill="#22d3ee" opacity="0.85"/>
    <circle cx="33" cy="-19" r="7" fill="#38bdf8" opacity="0.8"/>
    <circle cx="33" cy="19" r="7" fill="#60a5fa" opacity="0.75"/>
    <circle cx="0" cy="38" r="6.5" fill="#818cf8" opacity="0.7"/>
    <circle cx="-33" cy="19" r="6.5" fill="#a78bfa" opacity="0.7"/>
    <circle cx="-33" cy="-19" r="7" fill="#6366f1" opacity="0.75"/>
    <!-- Outer ring — dispersed -->
    <circle cx="8" cy="-62" r="5.5" fill="#22d3ee" opacity="0.55"/>
    <circle cx="50" cy="-36" r="5" fill="#38bdf8" opacity="0.5"/>
    <circle cx="58" cy="10" r="5" fill="#60a5fa" opacity="0.45"/>
    <circle cx="34" cy="52" r="4.5" fill="#818cf8" opacity="0.4"/>
    <circle cx="-14" cy="60" r="4.5" fill="#a78bfa" opacity="0.4"/>
    <circle cx="-52" cy="32" r="4" fill="#c084fc" opacity="0.35"/>
    <circle cx="-56" cy="-14" r="4.5" fill="#6366f1" opacity="0.4"/>
    <circle cx="-30" cy="-54" r="5" fill="#818cf8" opacity="0.45"/>
    <!-- Outermost scatter -->
    <circle cx="24" cy="-82" r="3.5" fill="#22d3ee" opacity="0.3"/>
    <circle cx="72" cy="-48" r="3" fill="#38bdf8" opacity="0.25"/>
    <circle cx="80" cy="20" r="3" fill="#60a5fa" opacity="0.22"/>
    <circle cx="52" cy="72" r="2.5" fill="#818cf8" opacity="0.2"/>
    <circle cx="-20" cy="82" r="2.5" fill="#a78bfa" opacity="0.2"/>
    <circle cx="-72" cy="46" r="2.5" fill="#c084fc" opacity="0.18"/>
    <circle cx="-78" cy="-24" r="2.5" fill="#6366f1" opacity="0.2"/>
    <circle cx="-46" cy="-74" r="3" fill="#818cf8" opacity="0.22"/>
  </g>
</svg>
